<svg width="19" height="19" viewBox="0 0 19 19" fill="none" xmlns="http://www.w3.org/2000/svg">
<path d="M18.8327 11.2453L17.8191 12.259L15.741 10.1809L16.7547 9.16726C16.9676 8.94425 17.3224 8.94425 17.5352 9.16726L18.8327 10.4648C19.0558 10.6776 19.0558 11.0324 18.8327 11.2453ZM9 16.9118L15.1531 10.7689L17.2311 12.8469L11.0882 19H9V16.9118Z" fill="#1B1B1B"/>
<path fill-rule="evenodd" clip-rule="evenodd" d="M11.0832 0.666992C10.3928 0.666992 9.83317 1.22664 9.83317 1.91699V6.91699C9.83317 7.60735 10.3928 8.16699 11.0832 8.16699H13.9998C14.4601 8.16699 14.8332 7.7939 14.8332 7.33366C14.8332 6.87342 14.4601 6.50033 13.9998 6.50033H11.4998V2.33366L15.6665 2.33366V4.83366C15.6665 5.2939 16.0396 5.66699 16.4998 5.66699C16.9601 5.66699 17.3332 5.2939 17.3332 4.83366V1.91699C17.3332 1.22664 16.7735 0.666992 16.0832 0.666992H11.0832ZM0.666504 11.0837C0.666504 10.3933 1.22615 9.83366 1.9165 9.83366H6.9165C7.60686 9.83366 8.1665 10.3933 8.1665 11.0837V14.0003C8.1665 14.4606 7.79341 14.8337 7.33317 14.8337C6.87293 14.8337 6.49984 14.4606 6.49984 14.0003V11.5003H2.33317V15.667H4.83317C5.29341 15.667 5.6665 16.0401 5.6665 16.5003C5.6665 16.9606 5.29341 17.3337 4.83317 17.3337H1.9165C1.22615 17.3337 0.666504 16.774 0.666504 16.0837V11.0837ZM1.9165 0.666992C1.22615 0.666992 0.666504 1.22664 0.666504 1.91699V6.91699C0.666504 7.60735 1.22615 8.16699 1.9165 8.16699H6.9165C7.60686 8.16699 8.1665 7.60735 8.1665 6.91699V1.91699C8.1665 1.22664 7.60686 0.666992 6.9165 0.666992H1.9165ZM2.33317 6.50033V2.33366H6.49984V6.50033H2.33317Z" fill="#1B1B1B"/>
</svg>
