<svg width="152" height="154" viewBox="0 0 152 154" fill="none" xmlns="http://www.w3.org/2000/svg">
<path opacity="0.5" fill-rule="evenodd" clip-rule="evenodd" d="M151.376 0H78.7156L66.4462 24.004C66.6305 24.0013 66.8151 24 67 24C87.9868 24 105 41.0132 105 62C105 82.9868 87.9868 100 67 100C54.1283 100 42.7513 93.6002 35.8774 83.809L0 154H72.6606L151.376 0Z" fill="url(#paint0_linear_14908_143138)"/>
<circle cx="67" cy="62" r="30" fill="#BBC4C7"/>
<path fill-rule="evenodd" clip-rule="evenodd" d="M33 62C33 43.2223 48.2223 28 67 28C85.7777 28 101 43.2223 101 62C101 80.7777 85.7777 96 67 96C48.2223 96 33 80.7777 33 62ZM67 24C46.0132 24 29 41.0132 29 62C29 82.9868 46.0132 100 67 100C77.4934 100 86.9934 95.7467 93.8701 88.8701L118.87 113.87C119.651 114.651 120.917 114.651 121.698 113.87C122.48 113.089 122.48 111.823 121.698 111.042L96.5501 85.8933C101.835 79.3658 105 71.0526 105 62C105 41.0132 87.9868 24 67 24Z" fill="#374A50" fill-opacity="0.65"/>
<path d="M60.352 54.1684C59.124 53.6316 58.6021 52.0684 59.3389 50.9316C60.8279 48.6579 63.3146 47 66.5996 47C70.2069 47 72.6784 48.6895 73.9371 50.8053C75.0116 52.6211 75.641 56.0158 73.9831 58.5421C72.1411 61.3368 70.3758 62.1895 69.4241 63.9895C69.1938 64.4158 69.0557 64.7632 68.9636 65.4737C68.8254 66.6263 67.9044 67.5263 66.7685 67.5263C65.433 67.5263 64.3431 66.3421 64.4966 64.9684C64.5887 64.1632 64.7729 63.3263 65.2027 62.5368C66.3847 60.3421 68.6566 59.0474 69.9767 57.1053C71.3736 55.0684 70.5907 51.2632 66.6303 51.2632C64.8343 51.2632 63.6677 52.2263 62.9462 53.3789C62.409 54.2789 61.2884 54.5632 60.352 54.1684ZM69.685 73.8421C69.685 75.5789 68.3035 77 66.615 77C64.9264 77 63.5449 75.5789 63.5449 73.8421C63.5449 72.1053 64.9264 70.6842 66.615 70.6842C68.3035 70.6842 69.685 72.1053 69.685 73.8421Z" fill="white"/>
<defs>
<linearGradient id="paint0_linear_14908_143138" x1="75.6881" y1="86.1667" x2="75.6881" y2="154" gradientUnits="userSpaceOnUse">
<stop stop-color="#BBC4C7"/>
<stop offset="1" stop-color="#BBC4C7" stop-opacity="0"/>
</linearGradient>
</defs>
</svg>
