<svg width="32" height="32" viewBox="0 0 32 32" fill="none" xmlns="http://www.w3.org/2000/svg">
<path fill-rule="evenodd" clip-rule="evenodd" d="M12.1815 7.1001C10.0227 7.1001 8.27259 8.85017 8.27259 11.009C8.27259 13.1678 10.0227 14.9179 12.1815 14.9179C14.3403 14.9179 16.0904 13.1678 16.0904 11.009C16.0904 8.85017 14.3403 7.1001 12.1815 7.1001ZM6.27259 11.009C6.27259 7.7456 8.91809 5.1001 12.1815 5.1001C15.4449 5.1001 18.0904 7.7456 18.0904 11.009C18.0904 12.9007 17.2014 14.5849 15.8184 15.6664C19.0801 17.075 21.363 20.3206 21.363 24.0994V25.7357C21.363 26.288 20.9152 26.7357 20.363 26.7357H4C3.44772 26.7357 3 26.288 3 25.7357V24.0994C3 20.3206 5.28281 17.075 8.5446 15.6664C7.16158 14.5849 6.27259 12.9007 6.27259 11.009ZM12.1815 16.9179C8.21526 16.9179 5 20.1331 5 24.0994V24.7357H19.363V24.0994C19.363 20.1331 16.1477 16.9179 12.1815 16.9179ZM19.8175 5.1001C19.2653 5.1001 18.8175 5.54781 18.8175 6.1001C18.8175 6.65238 19.2653 7.1001 19.8175 7.1001C21.9764 7.1001 23.7264 8.85017 23.7264 11.009C23.7264 12.5423 22.8437 13.8713 21.5542 14.5121C21.2143 14.681 20.9993 15.028 20.9993 15.4076V16.212C20.9993 16.6618 21.2996 17.0563 21.7332 17.1759C24.7702 18.0141 26.999 20.7977 26.999 24.0993V24.7356H24.7264C24.1741 24.7356 23.7264 25.1834 23.7264 25.7356C23.7264 26.2879 24.1741 26.7356 24.7264 26.7356H27.999C28.5513 26.7356 28.999 26.2879 28.999 25.7356V24.0993C28.999 20.3194 26.7155 17.0748 23.454 15.6665C24.8362 14.5858 25.7264 12.902 25.7264 11.009C25.7264 7.7456 23.0809 5.1001 19.8175 5.1001Z" fill="white"/>
</svg>
