<svg width="32" height="32" viewBox="0 0 32 32" fill="none" xmlns="http://www.w3.org/2000/svg">
<circle cx="16" cy="16" r="12" stroke="#03E8B4" stroke-width="2"/>
<path d="M12.676 12.8379C12.062 12.5754 11.801 11.8112 12.1694 11.2554C12.9139 10.1438 14.1573 9.33331 15.7998 9.33331C17.6035 9.33331 18.8392 10.1593 19.4685 11.1937C20.0058 12.0814 20.3205 13.741 19.4916 14.9761C18.5705 16.3424 17.6879 16.7593 17.212 17.6393C17.0969 17.8477 17.0278 18.0175 16.9818 18.3649C16.9127 18.9284 16.4522 19.3684 15.8842 19.3684C15.2165 19.3684 14.6716 18.7895 14.7483 18.1179C14.7944 17.7242 14.8865 17.3151 15.1014 16.9291C15.6924 15.8561 16.8283 15.2231 17.4883 14.2737C18.1868 13.2779 17.7954 11.4175 15.8152 11.4175C14.9172 11.4175 14.3338 11.8884 13.9731 12.4519C13.7045 12.8919 13.1442 13.0309 12.676 12.8379ZM17.3425 22.4561C17.3425 23.3052 16.6518 24 15.8075 24C14.9632 24 14.2724 23.3052 14.2724 22.4561C14.2724 21.607 14.9632 20.9123 15.8075 20.9123C16.6518 20.9123 17.3425 21.607 17.3425 22.4561Z" fill="#03E8B4"/>
</svg>
