<svg width="32" height="32" viewBox="0 0 32 32" fill="none" xmlns="http://www.w3.org/2000/svg">
<path d="M25.8995 9.89936L20 9.89936M14.5858 9.89936L20 9.89936M23.0711 9.89936L23.0711 7.07094M20 9.89936L20 7.07094M13.5251 7.42449C14.892 8.79133 14.892 11.0074 13.5251 12.3742C12.1583 13.7411 9.94221 13.7411 8.57538 12.3742C7.20854 11.0074 7.20854 8.79133 8.57538 7.42449C9.94221 6.05766 12.1583 6.05766 13.5251 7.42449Z" stroke="#03E8B4" stroke-width="2" stroke-linecap="round"/>
<line x1="26.2" y1="20" x2="26.2" y2="24" stroke="#03E8B4" stroke-width="2"/>
<line x1="22.2" y1="20" x2="22.2" y2="24" stroke="#03E8B4" stroke-width="2"/>
<line x1="18.2" y1="20" x2="18.2" y2="24" stroke="#03E8B4" stroke-width="2"/>
<line x1="14.2" y1="20" x2="14.2" y2="24" stroke="#03E8B4" stroke-width="2"/>
<line x1="10.2" y1="20" x2="10.2" y2="24" stroke="#03E8B4" stroke-width="2"/>
<line x1="6.19995" y1="20" x2="6.19995" y2="24" stroke="#03E8B4" stroke-width="2"/>
</svg>
