<svg width="32" height="32" viewBox="0 0 32 32" fill="none" xmlns="http://www.w3.org/2000/svg">
<path fill-rule="evenodd" clip-rule="evenodd" d="M16 29C23.1797 29 29 23.1797 29 16C29 8.8203 23.1797 3 16 3C8.8203 3 3 8.8203 3 16C3 23.1797 8.8203 29 16 29ZM16 11C14.6193 11 13.5 12.1193 13.5 13.5C13.5 14.8807 14.6193 16 16 16C17.3807 16 18.5 14.8807 18.5 13.5C18.5 12.1193 17.3807 11 16 11ZM20.5 13.5C20.5 14.7702 19.9737 15.9175 19.1273 16.7357C21.4234 17.8842 23 20.258 23 23C23 23.5523 22.5523 24 22 24C21.4477 24 21 23.5523 21 23C21 20.2386 18.7614 18 16 18C13.2386 18 11 20.2386 11 23C11 23.5523 10.5523 24 10 24C9.44772 24 9 23.5523 9 23C9 20.258 10.5766 17.8842 12.8727 16.7357C12.0263 15.9175 11.5 14.7702 11.5 13.5C11.5 11.0147 13.5147 9 16 9C18.4853 9 20.5 11.0147 20.5 13.5Z" fill="white"/>
</svg>
