<svg width="32" height="32" viewBox="0 0 32 32" fill="none" xmlns="http://www.w3.org/2000/svg">
<path d="M25.8995 9.89939L20 9.8994M14.5858 9.8994L20 9.8994M23.0711 9.89939L23.0711 7.07097M20 9.8994L20 7.07097M13.5251 7.42452C14.892 8.79136 14.892 11.0074 13.5251 12.3743C12.1583 13.7411 9.94221 13.7411 8.57538 12.3743C7.20854 11.0074 7.20854 8.79136 8.57538 7.42452C9.94221 6.05769 12.1583 6.05769 13.5251 7.42452Z" stroke="white" stroke-width="2" stroke-linecap="round"/>
<line x1="26.2" y1="20.0001" x2="26.2" y2="24.0001" stroke="white" stroke-width="2"/>
<line x1="22.2" y1="20.0001" x2="22.2" y2="24.0001" stroke="white" stroke-width="2"/>
<line x1="18.2" y1="20.0001" x2="18.2" y2="24.0001" stroke="white" stroke-width="2"/>
<line x1="14.2" y1="20.0001" x2="14.2" y2="24.0001" stroke="white" stroke-width="2"/>
<line x1="10.2" y1="20.0001" x2="10.2" y2="24.0001" stroke="white" stroke-width="2"/>
<line x1="6.20001" y1="20.0001" x2="6.20001" y2="24.0001" stroke="white" stroke-width="2"/>
</svg>
