<svg width="32" height="32" viewBox="0 0 32 32" fill="none" xmlns="http://www.w3.org/2000/svg">
<path d="M16 24V28M24 4V8M7.99999 4L8 11.4M7.99999 17.6V28M16 17.8V4M24 14.2V28M8.09999 11.4H7.89999C6.1879 11.4 4.79999 12.7879 4.79999 14.5V14.5C4.79999 16.2121 6.1879 17.6 7.89999 17.6H8.09999C9.81207 17.6 11.2 16.2121 11.2 14.5V14.5C11.2 12.7879 9.81207 11.4 8.09999 11.4ZM15.9 17.8H16.1C17.8121 17.8 19.2 19.1879 19.2 20.9V20.9C19.2 22.6121 17.8121 24 16.1 24H15.9C14.1879 24 12.8 22.6121 12.8 20.9V20.9C12.8 19.1879 14.1879 17.8 15.9 17.8ZM24.1 8H23.9C22.1879 8 20.8 9.38792 20.8 11.1V11.1C20.8 12.8121 22.1879 14.2 23.9 14.2H24.1C25.8121 14.2 27.2 12.8121 27.2 11.1V11.1C27.2 9.38792 25.8121 8 24.1 8Z" stroke="white" stroke-width="2" stroke-linecap="round"/>
</svg>
