<svg width="32" height="32" viewBox="0 0 32 32" fill="none" xmlns="http://www.w3.org/2000/svg">
<path fill-rule="evenodd" clip-rule="evenodd" d="M12.1815 7.1C10.0227 7.1 8.27259 8.85007 8.27259 11.0089C8.27259 13.1677 10.0227 14.9178 12.1815 14.9178C14.3403 14.9178 16.0904 13.1677 16.0904 11.0089C16.0904 8.85007 14.3403 7.1 12.1815 7.1ZM6.27259 11.0089C6.27259 7.7455 8.91809 5.1 12.1815 5.1C15.4449 5.1 18.0904 7.7455 18.0904 11.0089C18.0904 12.9006 17.2014 14.5848 15.8184 15.6663C19.0801 17.0749 21.363 20.3205 21.363 24.0993V25.7356C21.363 26.2879 20.9152 26.7356 20.363 26.7356H4C3.44772 26.7356 3 26.2879 3 25.7356V24.0993C3 20.3205 5.28281 17.0749 8.5446 15.6663C7.16158 14.5848 6.27259 12.9006 6.27259 11.0089ZM12.1815 16.9178C8.21526 16.9178 5 20.133 5 24.0993V24.7356H19.363V24.0993C19.363 20.1331 16.1477 16.9178 12.1815 16.9178ZM19.8175 5.1C19.2653 5.1 18.8175 5.54772 18.8175 6.1C18.8175 6.65228 19.2653 7.1 19.8175 7.1C21.9764 7.1 23.7264 8.85007 23.7264 11.0089C23.7264 12.5422 22.8437 13.8712 21.5542 14.512C21.2143 14.681 20.9993 15.0279 20.9993 15.4075V16.2119C20.9993 16.6617 21.2996 17.0562 21.7332 17.1758C24.7702 18.014 26.999 20.7976 26.999 24.0992V24.7355H24.7264C24.1741 24.7355 23.7264 25.1833 23.7264 25.7355C23.7264 26.2878 24.1741 26.7355 24.7264 26.7355H27.999C28.5513 26.7355 28.999 26.2878 28.999 25.7355V24.0992C28.999 20.3193 26.7155 17.0747 23.454 15.6664C24.8362 14.5857 25.7264 12.9019 25.7264 11.0089C25.7264 7.7455 23.0809 5.1 19.8175 5.1Z" fill="#03E8B4"/>
</svg>
